<svg width="89" height="90" viewBox="0 0 89 90" fill="none" xmlns="http://www.w3.org/2000/svg">
<path fill-rule="evenodd" clip-rule="evenodd" d="M44.5045 0C32.7012 0 21.3813 4.71683 13.0351 13.1128C4.68886 21.5089 0 32.8963 0 44.7701C0 56.6438 4.68886 68.0312 13.0351 76.4273C21.3813 84.8233 32.7012 89.5401 44.5045 89.5401C56.3078 89.5401 67.6277 84.8233 75.974 76.4273C84.3202 68.0312 89.009 56.6438 89.009 44.7701C89.009 32.8963 84.3202 21.5089 75.974 13.1128C67.6277 4.71683 56.3078 0 44.5045 0ZM36.6306 27.5508L54.7748 44.7701L36.6306 61.9893L34.2342 59.7164L49.982 44.7701L34.2342 29.8237L36.6306 27.5508Z" fill="black"/>
</svg>
